<?xml version="1.0" encoding="utf-8"?>
<!-- Generator: Adobe Illustrator 16.0.0, SVG Export Plug-In . SVG Version: 6.00 Build 0)  -->
<!DOCTYPE svg PUBLIC "-//W3C//DTD SVG 1.0//EN" "http://www.w3.org/TR/2001/REC-SVG-20010904/DTD/svg10.dtd">
<svg version="1.0" id="Capa_1" xmlns="http://www.w3.org/2000/svg" xmlns:xlink="http://www.w3.org/1999/xlink" x="0px" y="0px"
	 width="132.833px" height="132.834px" viewBox="0 0 132.833 132.834" enable-background="new 0 0 132.833 132.834"
	 xml:space="preserve">
<g>
	<g>
		<path d="M95.152,62.005c-1.529-1.337-3.433-2.01-5.708-2.01c-2.474,0-4.398,0.716-5.757,2.127
			c-1.365,1.428-2.214,3.348-2.565,5.788h16.606C97.551,65.313,96.692,63.338,95.152,62.005z"/>
		<path d="M52.2,68.89c-1.182-0.547-2.839-0.83-4.98-0.838H34.946V81.49h12.102c2.162,0,3.849-0.308,5.051-0.895
			c2.193-1.1,3.283-3.202,3.283-6.296C55.382,71.668,54.322,69.869,52.2,68.89z"/>
		<path d="M52.344,58.439c1.34-0.843,2.021-2.318,2.021-4.435c0-2.358-0.894-3.894-2.678-4.657
			c-1.535-0.525-3.509-0.778-5.894-0.778H34.945v11.112h12.122C49.23,59.682,50.983,59.268,52.344,58.439z"/>
		<path d="M131.614,3.515c0.002-1.728-0.349-2.078-2.074-2.074c-42.083,0.061-84.164,0.061-126.246,0
			C1.567,1.438,1.218,1.788,1.22,3.515c0.061,42.081,0.061,84.162,0,126.242c-0.002,1.729,0.347,2.085,2.076,2.077
			c20.943-0.075,41.887-0.048,62.832-0.048c21.136,0,42.274-0.027,63.412,0.048c1.727,0.008,2.076-0.349,2.074-2.077
			C131.552,87.677,131.552,45.596,131.614,3.515z M63.991,83.468c-0.944,1.591-2.123,2.915-3.544,4.009
			c-1.594,1.234-3.493,2.073-5.66,2.539c-2.179,0.447-4.538,0.676-7.081,0.676H25.117V39.988h24.228
			c6.106,0.087,10.441,1.89,12.979,5.414c1.533,2.14,2.304,4.725,2.304,7.73c0,3.091-0.781,5.589-2.323,7.473
			c-0.875,1.05-2.139,2.015-3.818,2.877c2.552,0.949,4.482,2.431,5.787,4.473c1.299,2.056,1.951,4.524,1.951,7.438
			C66.224,78.396,65.481,81.086,63.991,83.468z M77.096,45.188h25.99v5.198h-25.99V45.188z M108.276,74.69H81.278
			c0.154,3.777,1.454,6.407,3.891,7.925c1.472,0.939,3.253,1.407,5.329,1.407c2.207,0,4.005-0.572,5.374-1.722
			c0.763-0.618,1.423-1.467,2.006-2.58h9.889c-0.259,2.215-1.462,4.484-3.594,6.789c-3.32,3.627-7.969,5.46-13.944,5.46
			c-4.93,0-9.275-1.538-13.052-4.612c-3.766-3.083-5.645-8.077-5.645-15.016c0-6.488,1.695-11.478,5.107-14.946
			c3.397-3.461,7.812-5.203,13.245-5.203c3.222,0,6.125,0.605,8.704,1.763c2.59,1.177,4.725,3.021,6.416,5.548
			c1.508,2.243,2.497,4.821,2.955,7.762C108.213,68.981,108.32,71.454,108.276,74.69z"/>
	</g>
</g>
</svg>
