<?xml version="1.0" encoding="utf-8"?>
<!-- Generator: Adobe Illustrator 16.0.0, SVG Export Plug-In . SVG Version: 6.00 Build 0)  -->
<!DOCTYPE svg PUBLIC "-//W3C//DTD SVG 1.0//EN" "http://www.w3.org/TR/2001/REC-SVG-20010904/DTD/svg10.dtd">
<svg version="1.0" id="Layer_1" xmlns="http://www.w3.org/2000/svg" xmlns:xlink="http://www.w3.org/1999/xlink" x="0px" y="0px"
	 width="79.253px" height="79.252px" viewBox="1.364 1.305 79.253 79.252" enable-background="new 1.364 1.305 79.253 79.252"
	 xml:space="preserve">
<g>
	<g>
		<g>
			<path d="M48.94,47.42c2.246-1.119,4.502-2.222,6.734-3.367c0.559-0.287,1.374-0.414,1.296-1.325
				c-0.069-0.806-0.769-1.065-1.344-1.388c-0.978-0.546-2.024-1.022-3.027-1.449c-3.591-1.533-4.543-4.103-3.47-7.787
				c2.106,0.426,3.771,1.979,5.677,3.002c2.975,1.595,5.897,3.308,8.732,5.141c2.101,1.36,2.235,3.444,0.179,4.667
				c-4.883,2.899-9.641,6.048-14.896,8.284C48.859,51.272,48.899,49.346,48.94,47.42z"/>
		</g>
		<g>
			<path d="M33.355,53.313c-4.795-2.73-9.635-5.388-14.368-8.223c-2.561-1.536-2.539-3.619,0.021-5.153
				c4.563-2.734,9.219-5.316,13.858-7.976c1.442,4.121,0.953,5.435-2.524,7.212c-1.873,0.955-3.722,1.956-5.87,3.089
				c2.961,2.475,6.706,3.177,9.078,5.906C33.487,49.884,33.422,51.599,33.355,53.313z"/>
		</g>
		<g>
			<path d="M35.403,53.533c2.314-6.87,4.642-13.738,6.924-20.622c0.349-1.052,0.551-1.986,1.98-2.088
				c1.845-0.13,2.76,0.123,2.003,2.319c-2.248,6.498-4.362,13.041-6.544,19.563c-0.836,2.494-2.679,1.553-4.331,1.229
				C35.48,53.797,35.468,53.663,35.403,53.533z"/>
		</g>
	</g>
	<g>
		<g>
			<path d="M68.053,78.747H13.927c-5.93,0-10.753-4.824-10.753-10.753V13.868c0-5.93,4.824-10.753,10.753-10.753h54.126
				c5.93,0,10.754,4.824,10.754,10.753v54.126C78.807,73.923,73.983,78.747,68.053,78.747z M13.927,3.578
				c-5.674,0-10.29,4.616-10.29,10.29v54.126c0,5.674,4.616,10.289,10.29,10.289h54.126c5.674,0,10.29-4.615,10.29-10.289V13.868
				c0-5.674-4.616-10.29-10.29-10.29H13.927z"/>
		</g>
	</g>
</g>
</svg>
