<?xml version="1.0" encoding="utf-8"?>
<!-- Generator: Adobe Illustrator 16.0.0, SVG Export Plug-In . SVG Version: 6.00 Build 0)  -->
<!DOCTYPE svg PUBLIC "-//W3C//DTD SVG 1.0//EN" "http://www.w3.org/TR/2001/REC-SVG-20010904/DTD/svg10.dtd">
<svg version="1.0" id="Capa_1" xmlns="http://www.w3.org/2000/svg" xmlns:xlink="http://www.w3.org/1999/xlink" x="0px" y="0px"
	 width="62.083px" height="62.084px" viewBox="0 0 62.083 62.084" enable-background="new 0 0 62.083 62.084" xml:space="preserve">
<path d="M31.041,2.696c-15.656,0-28.346,12.692-28.346,28.347S15.386,59.39,31.041,59.39c15.656,0,28.347-12.691,28.347-28.347
	S46.697,2.696,31.041,2.696z M41.141,38.393c0,2.702-1.333,5.325-3.355,7.156h3.52v1.649h-5.979
	c-1.168,0.552-2.44,0.864-3.749,0.857c-1.401,0-2.726-0.32-3.911-0.857h-4.666v-1.649h2.146c-1.408-1.27-2.366-2.877-2.64-4.485
	l-0.462-2.706h4.683l0.33,1.913c0.33,1.98,1.682,3.2,4.519,3.168c3.066,0,4.98-1.915,4.945-5.046c0-2.87-1.847-4.684-4.945-4.684
	h-2.309h-1.88l2.242-3.529l3.695-5.902h-6.365h-2.31V19.66h2.31h10.552h2.309h1.88l-2.242,3.528l-3.695,5.904
	C36.523,29.092,41.173,33.61,41.141,38.393z"/>
</svg>
