<?xml version="1.0" encoding="utf-8"?>
<!-- Generator: Adobe Illustrator 16.0.0, SVG Export Plug-In . SVG Version: 6.00 Build 0)  -->
<!DOCTYPE svg PUBLIC "-//W3C//DTD SVG 1.0//EN" "http://www.w3.org/TR/2001/REC-SVG-20010904/DTD/svg10.dtd">
<svg version="1.0" id="Capa_1" xmlns="http://www.w3.org/2000/svg" xmlns:xlink="http://www.w3.org/1999/xlink" x="0px" y="0px"
	 width="62.083px" height="62.084px" viewBox="0 0 62.083 62.084" enable-background="new 0 0 62.083 62.084" xml:space="preserve">
<path d="M31.042,2.695c-15.656,0-28.347,12.691-28.347,28.347c0,15.656,12.691,28.347,28.347,28.347
	c15.654,0,28.347-12.691,28.347-28.347C59.388,15.386,46.696,2.695,31.042,2.695z M40.97,43.875h-0.165v0.857h-2.31h-16.16v-2.309
	c0-8.838,13.885-12.302,13.851-17.841c0-2.209-1.615-3.594-4.616-3.628c-2.968,0-4.618,1.418-4.618,3.628v2.309h-4.617v-2.309
	c0-4.354,4.584-8.212,9.235-8.245c4.683,0,9.267,3.958,9.234,8.245c0,9.134-13.852,12.631-13.852,15.533h11.544h2.309v2.11h0.166
	v1.649H40.97z"/>
</svg>
