<?xml version="1.0" encoding="utf-8"?>
<!-- Generator: Adobe Illustrator 16.0.0, SVG Export Plug-In . SVG Version: 6.00 Build 0)  -->
<!DOCTYPE svg PUBLIC "-//W3C//DTD SVG 1.0//EN" "http://www.w3.org/TR/2001/REC-SVG-20010904/DTD/svg10.dtd">
<svg version="1.0" id="Capa_1" xmlns="http://www.w3.org/2000/svg" xmlns:xlink="http://www.w3.org/1999/xlink" x="0px" y="0px"
	 width="132.833px" height="132.834px" viewBox="0 0 132.833 132.834" enable-background="new 0 0 132.833 132.834"
	 xml:space="preserve">
<path d="M131.867,3.048c0.004-1.734-0.348-2.084-2.08-2.083c-42.246,0.061-84.492,0.061-126.738,0
	C1.314,0.964,0.964,1.314,0.966,3.048c0.061,42.246,0.061,84.491,0,126.735c-0.002,1.732,0.349,2.091,2.083,2.085
	c21.026-0.077,42.051-0.048,63.078-0.048c21.221,0,42.438-0.029,63.66,0.048c1.734,0.006,2.082-0.353,2.08-2.085
	C131.806,87.539,131.806,45.294,131.867,3.048z M84.16,41.017h-9.441c-4.725,0-5.803,3.142-5.803,6.433v6.325h14.543l-1.984,12.614
	H68.916v38.061H56.407V66.388h-7.732v-12.62h7.732v-7.632c0-10.287,3.076-17.708,14.348-17.708h13.402v12.588H84.16z"/>
</svg>
