<?xml version="1.0" encoding="utf-8"?>
<!-- Generator: Adobe Illustrator 16.0.0, SVG Export Plug-In . SVG Version: 6.00 Build 0)  -->
<!DOCTYPE svg PUBLIC "-//W3C//DTD SVG 1.0//EN" "http://www.w3.org/TR/2001/REC-SVG-20010904/DTD/svg10.dtd">
<svg version="1.0" id="Layer_1" xmlns="http://www.w3.org/2000/svg" xmlns:xlink="http://www.w3.org/1999/xlink" x="0px" y="0px"
	 width="530.672px" height="901.253px" viewBox="0 0 530.672 901.253" enable-background="new 0 0 530.672 901.253"
	 xml:space="preserve">
<g>
	<polygon fill="#BCA582" points="498.355,498.136 530.671,435.075 440.816,301.073 355.39,8.479 302.589,94.937 238.93,0 0,466.173 
		122.012,540.483 252.773,525.79 275.917,568.968 355.968,502.075 421.96,547.444 450.835,508.261 	"/>
	<polygon fill="#E3B457" points="173.496,892.771 104.344,419.569 355.39,8.479 524.789,588.677 	"/>
	<polygon fill="#E19326" points="190.977,440.204 104.344,419.569 355.39,8.479 458.507,361.659 	"/>
	<polygon fill="#E3B457" points="291.75,901.253 0,466.173 238.93,0 530.671,466.011 	"/>
	<polygon fill="#DFD4C4" points="339.82,150.45 300.945,92.479 355.39,8.479 389.515,125.364 	"/>
	<polygon fill="#DFD4C4" points="257.34,142.235 190.977,93.56 238.875,0.614 295.421,84.248 	"/>
	<polygon fill="#72582E" points="173.496,892.771 147.957,717.978 76.91,580.868 182.711,683.543 	"/>
	<polygon fill="#72582E" points="246.539,831.495 190.977,624.78 252.773,525.79 314.562,641.062 	"/>
	<polygon fill="#72582E" points="372.222,639.759 376.558,500.011 445.554,440.204 458.507,521.536 	"/>
</g>
</svg>
