<?xml version="1.0" encoding="utf-8"?>
<!-- Generator: Adobe Illustrator 16.0.0, SVG Export Plug-In . SVG Version: 6.00 Build 0)  -->
<!DOCTYPE svg PUBLIC "-//W3C//DTD SVG 1.0//EN" "http://www.w3.org/TR/2001/REC-SVG-20010904/DTD/svg10.dtd">
<svg version="1.0" id="Capa_1" xmlns="http://www.w3.org/2000/svg" xmlns:xlink="http://www.w3.org/1999/xlink" x="0px" y="0px"
	 width="132.833px" height="132.834px" viewBox="0 0 132.833 132.834" enable-background="new 0 0 132.833 132.834"
	 xml:space="preserve">
<path d="M132.362,2.57c0.002-1.748-0.35-2.102-2.1-2.099c-42.563,0.062-85.127,0.062-127.692,0C0.822,0.469,0.469,0.823,0.472,2.57
	c0.062,42.563,0.062,85.128,0,127.692c-0.002,1.748,0.35,2.108,2.098,2.099c21.185-0.075,42.37-0.049,63.554-0.049
	c21.381,0,42.759-0.026,64.139,0.049c1.75,0.008,2.101-0.351,2.099-2.099C132.3,87.698,132.3,45.135,132.362,2.57z M50.321,97.151
	H36.985V50.478h13.336V97.151z M44.066,47.619c-3.455,0-6.25-2.804-6.25-6.261c0-3.448,2.802-6.248,6.25-6.248
	c3.455,0.003,6.254,2.806,6.254,6.248C50.321,44.815,47.522,47.619,44.066,47.619z M96.998,97.151H83.661V68.294
	c0-3.383-0.963-5.747-5.117-5.747c-6.89,0-8.219,5.747-8.219,5.747v28.857H56.99V50.478h13.335v4.463
	c1.902-1.459,6.667-4.459,13.338-4.459c4.322,0,13.336,2.587,13.336,18.219L96.998,97.151L96.998,97.151z"/>
</svg>
