<?xml version="1.0" encoding="utf-8"?>
<!-- Generator: Adobe Illustrator 16.0.0, SVG Export Plug-In . SVG Version: 6.00 Build 0)  -->
<!DOCTYPE svg PUBLIC "-//W3C//DTD SVG 1.0//EN" "http://www.w3.org/TR/2001/REC-SVG-20010904/DTD/svg10.dtd">
<svg version="1.0" id="Layer_1" xmlns="http://www.w3.org/2000/svg" xmlns:xlink="http://www.w3.org/1999/xlink" x="0px" y="0px"
	 width="2755.768px" height="2025.16px" viewBox="0 0 2755.768 2025.16" enable-background="new 0 0 2755.768 2025.16"
	 xml:space="preserve">
<g opacity="0.7">
	<g opacity="0.3">
		<g>
			<circle fill="#FFFFFF" cx="689.375" cy="600.454" r="366.247"/>
		</g>
	</g>
	<g opacity="0.2">
		<g>
			<path fill="#FFFFFF" d="M1244.338-591.713C1960.021-623.992,2566.356-69.987,2598.64,645.692
				c32.273,715.679-521.735,1322.016-1237.413,1354.295C645.546,2032.266,39.204,1478.262,6.931,762.581
				C-25.348,46.898,528.658-559.438,1244.338-591.713z"/>
		</g>
	</g>
	<g opacity="0.5">
		<g>
			<path fill="#FFFFFF" d="M880.575,744.118c34.971-1.58,64.602,25.493,66.181,60.467c1.575,34.975-25.496,64.604-60.468,66.183
				c-34.974,1.575-64.607-25.496-66.184-60.469C818.529,775.327,845.6,745.695,880.575,744.118z"/>
		</g>
	</g>
	<g opacity="0.5">
		<g>
			<circle fill="#FFFFFF" cx="820.26" cy="740.728" r="22.539"/>
		</g>
	</g>
	<g opacity="0.5">
		<g>
			<path fill="#FFFFFF" d="M577,442.938c26.177-1.18,48.355,19.083,49.534,45.26c1.181,26.177-19.082,48.353-45.261,49.534
				c-26.174,1.181-48.354-19.081-49.534-45.26C530.557,466.295,550.825,444.12,577,442.938z"/>
		</g>
	</g>
	<g opacity="0.5">
		<g>
			<circle fill="#FFFFFF" cx="531.854" cy="440.403" r="16.869"/>
		</g>
	</g>
	<g opacity="0.5">
		<g>
			<circle fill="#FFFFFF" cx="610.632" cy="512.382" r="35.918"/>
		</g>
	</g>
	<g opacity="0.5">
		<g>
			<path fill="#FFFFFF" d="M647.002,562.941c-7.044,0.318-13.017-5.134-13.334-12.18c-0.315-7.049,5.14-13.017,12.184-13.336
				c7.047-0.315,13.016,5.136,13.333,12.187C659.504,556.655,654.048,562.623,647.002,562.941z"/>
		</g>
	</g>
	<g opacity="0.5">
		<g>
			<path fill="#3EA9DB" d="M-91.929-150.945c14.922-0.673,27.566,10.879,28.239,25.804c0.673,14.924-10.881,27.566-25.806,28.242
				c-14.92,0.67-27.564-10.881-28.237-25.805C-118.406-137.627-106.852-150.271-91.929-150.945z"/>
		</g>
	</g>
	<g opacity="0.5">
		<g>
			<path fill="#3EA9DB" d="M-118.103-161.996c5.307-0.242,9.804,3.864,10.041,9.172c0.239,5.307-3.867,9.801-9.173,10.042
				c-5.306,0.238-9.802-3.871-10.042-9.175C-127.515-157.264-123.406-161.759-118.103-161.996z"/>
		</g>
	</g>
	<g opacity="0.5">
		<g>
			<circle fill="#3EA9DB" cx="-72.755" cy="-111.355" r="20.479"/>
		</g>
	</g>
	<g opacity="0.5">
		<g>
			<path fill="#3EA9DB" d="M-52.019-82.527c-4.019,0.178-7.422-2.931-7.604-6.948c-0.181-4.02,2.931-7.421,6.945-7.602
				c4.019-0.182,7.423,2.929,7.604,6.947C-44.894-86.114-48.004-82.711-52.019-82.527z"/>
		</g>
	</g>
	<g>
		<path opacity="0.4" fill="#FFFFFF" d="M14.713,326.255c185.166-8.351,328.683-161.188,320.558-341.377
			c-8.128-180.187-164.82-319.486-349.984-311.136c-185.168,8.352-328.684,161.19-320.558,341.379
			C-327.145,195.307-170.449,334.608,14.713,326.255z"/>
		<line fill="none" x1="0" y1="0" x2="-10.509" y2="170.225"/>
		<path opacity="0.7" fill="#FFFFFF" d="M10.64,235.87c130.268-5.877,231.1-116.241,225.228-246.509
			C229.99-140.91,119.63-241.746-10.637-235.869c-130.271,5.876-231.104,116.236-225.228,246.506
			C-229.993,140.902-119.633,241.744,10.64,235.87z"/>
		<path fill="#FFFFFF" d="M7.685,170.376c94.097-4.243,166.936-83.965,162.693-178.06c-4.245-94.096-83.964-166.939-178.063-162.69
			c-94.098,4.241-166.935,83.962-162.692,178.057C-166.131,101.782-86.41,174.621,7.685,170.376z"/>
	</g>
</g>
</svg>
